<svg xmlns="http://www.w3.org/2000/svg" xmlns:xlink="http://www.w3.org/1999/xlink" viewBox="0 0 24 24"><defs><symbol id="material_system_icon_border" data-name="material_system_icon_border" viewBox="0 0 48 48"><rect width="48" height="48" fill="none"/></symbol></defs><title>stickerMarker</title><g id="border"><use id="material_system_icon_border-3" data-name="material_system_icon_border" width="48" height="48" transform="scale(0.5)" xlink:href="#material_system_icon_border"/></g><g id="icon"><path d="M17.47,20.4H5.74A2.75,2.75,0,0,1,3,17.65V5.86A2.75,2.75,0,0,1,5.74,3.1h6.8a.5.5,0,0,1,.49.5V4.77a.5.5,0,0,1-.49.5H5.74a.58.58,0,0,0-.59.59V17.65a.58.58,0,0,0,.59.59H17.47a.58.58,0,0,0,.59-.59v-7a.49.49,0,0,1,.49-.5h1.17a.49.49,0,0,1,.49.5v7A2.74,2.74,0,0,1,17.47,20.4Z" transform="translate(0 0)" fill="#fff"/><path d="M20.32,4.61a1.88,1.88,0,0,0-.58-1.38,1.79,1.79,0,0,0-1.34-.6,2.21,2.21,0,0,0-1.44.7L10.73,9.56a.55.55,0,0,0-.15.28L10,12.12a.72.72,0,0,0,.18.67h0a.7.7,0,0,0,.66.19l2.23-.5a.56.56,0,0,0,.28-.16l6.27-6.27A2.18,2.18,0,0,0,20.32,4.61Zm-1.89-.9A.74.74,0,0,1,19,4a.86.86,0,0,1-.07,1.29l-.25.25L17.48,4.34l.26-.27A1.21,1.21,0,0,1,18.43,3.71ZM11.21,11.8l.34-1.41a.56.56,0,0,1,.16-.28l5-5,1.18,1.18-5.05,5a.56.56,0,0,1-.29.16Z" transform="translate(0 0)" fill="#fff"/></g></svg>