<svg xmlns="http://www.w3.org/2000/svg" xmlns:xlink="http://www.w3.org/1999/xlink" viewBox="0 0 24 24"><defs><symbol id="material_system_icon_border" data-name="material_system_icon_border" viewBox="0 0 48 48"><rect width="48" height="48" fill="none"/></symbol></defs><title>stickerFastIcon</title><g id="border"><use id="material_system_icon_border-3" data-name="material_system_icon_border" width="48" height="48" transform="scale(0.5)" xlink:href="#material_system_icon_border"/></g><g id="icon"><path d="M8.22,2.74A10,10,0,0,1,21.55,9a10.14,10.14,0,0,1,.3,4.71A9.94,9.94,0,0,1,20,17.94a10.17,10.17,0,0,1-2.76,2.55,10,10,0,0,1-10,.32l-2.42.62a1.9,1.9,0,0,1-1.47-.22,1.86,1.86,0,0,1-.87-1.6,2.79,2.79,0,0,1,.21-.94c.18-.59.38-1.18.56-1.77A10,10,0,0,1,8.22,2.74Zm2.83,1.19A8.09,8.09,0,0,0,6.93,5.65a8.11,8.11,0,0,0-3,7.47,8,8,0,0,0,1.38,3.52c-.31,1-.63,2-1,3l3.17-.82A8.62,8.62,0,0,0,9,19.54a8.14,8.14,0,0,0,10.34-4,8,8,0,0,0,.8-4.21,8.14,8.14,0,0,0-1.24-3.73A8.24,8.24,0,0,0,15.1,4.49,8.12,8.12,0,0,0,11.05,3.93Z" transform="translate(0 0)" fill="#fff"/><path d="M7.51,8.08V7.27l.33.23,1.33,1,1.06.76.87.63,1,.7V7.27l6.07,4.36.05,0-.21.15L16.33,13l-4.25,3.06c0-.53,0-1,0-1.57V12.77l-1.26.9-1,.73-1,.71L7.56,16l0,0v-8Z" transform="translate(0 0)" fill="#fff"/><path d="M20.1,11.36a8.07,8.07,0,0,0-1.24-3.72,8.14,8.14,0,0,0-7.81-3.71A8.09,8.09,0,0,0,6.93,5.65a8.12,8.12,0,0,0-3,7.48,8,8,0,0,0,1.38,3.51c-.31,1-.63,2-1,3l3.17-.82A8.62,8.62,0,0,0,9,19.54a8.14,8.14,0,0,0,10.34-4A8,8,0,0,0,20.1,11.36ZM18,11.81,16.33,13l-4.25,3.06c0-.53,0-1,0-1.57V12.77l-1.26.9-1,.73-1,.71L7.56,16l0,0V7.27l.33.23,1.33,1,1.06.76.87.62,1,.71V7.27l6.07,4.36.05,0Z" transform="translate(0 0)" fill="#27c900"/></g></svg>