<svg xmlns="http://www.w3.org/2000/svg" xmlns:xlink="http://www.w3.org/1999/xlink" viewBox="0 0 24 24"><defs><symbol id="material_system_icon_border" data-name="material_system_icon_border" viewBox="0 0 48 48"><rect width="48" height="48" fill="none"/></symbol></defs><title>wmoji</title><g id="border"><use id="material_system_icon_border-3" data-name="material_system_icon_border" width="48" height="48" transform="scale(0.5)" xlink:href="#material_system_icon_border"/></g><g id="icon"><path d="M9,3.53A8.92,8.92,0,1,1,7.76,19.76L3,21c.4-1.47.81-2.95,1.22-4.42,0-.09.08-.18,0-.27A8.92,8.92,0,0,1,9,3.53ZM9,5.17A7.5,7.5,0,0,0,6.79,6.66a7.4,7.4,0,0,0-1,9.34c0,.07.12.14.07.23-.24.88-.48,1.77-.73,2.65.95-.24,1.89-.5,2.83-.73a7.72,7.72,0,0,0,2.25,1A7.45,7.45,0,0,0,14.31,19,7.4,7.4,0,0,0,15.86,5.56,7.52,7.52,0,0,0,9,5.17Z" transform="translate(0 0)" fill="#fff"/><path d="M9,8.06A1.53,1.53,0,1,1,7.8,9.67,1.55,1.55,0,0,1,9,8.06Z" transform="translate(0 0)" fill="#fff"/><path d="M14.48,8.06a1.53,1.53,0,1,1-1.16,1.67A1.55,1.55,0,0,1,14.48,8.06Z" transform="translate(0 0)" fill="#fff"/><path d="M7.57,12.78h9a4.46,4.46,0,0,1-.85,2.62,4.49,4.49,0,0,1-8.14-2.62Z" transform="translate(0 0)" fill="#fff"/></g></svg>